<svg id="Layer_1" data-name="Layer 1" xmlns="http://www.w3.org/2000/svg" viewBox="0 0 197.245 154.218">
  <defs>
    <style>
      .cls-1 {
        fill: none;
        stroke: #52c6b3;
        stroke-miterlimit: 10;
        stroke-width: 11px;
      }
    </style>
  </defs>
  <title>28d78108-a74a-434e-88c3-028a610aa7d1</title>
  <g>
    <polygon class="cls-1" points="87.387 132.061 74.594 139.975 61.801 132.061 61.801 116.232 74.594 108.318 87.387 116.232 87.387 132.061"/>
    <polygon class="cls-1" points="107.387 113.061 94.594 120.975 81.801 113.061 81.801 97.232 94.594 89.318 107.387 97.232 107.387 113.061"/>
    <polygon class="cls-1" points="98.387 87.477 51.548 113.55 5.549 86.023 6.388 32.424 53.226 6.35 99.226 33.877 98.387 87.477"/>
    <polygon class="cls-1" points="91.482 86.931 59.033 97.173 33.938 74.192 41.293 40.969 73.742 30.727 98.837 53.708 91.482 86.931"/>
    <polygon class="cls-1" points="109.844 100.571 133.909 67.649 174.452 72.028 190.931 109.33 166.866 142.251 126.323 137.872 109.844 100.571"/>
    <polygon class="cls-1" points="141.488 41.648 137.601 42.984 134.501 40.286 135.287 36.252 139.173 34.916 142.274 37.614 141.488 41.648"/>
    <polygon class="cls-1" points="126.757 74.555 111.888 79.099 100.518 68.494 104.018 53.345 118.887 48.801 130.257 59.406 126.757 74.555"/>
    <polygon class="cls-1" points="142.033 99.479 130.226 96.872 126.58 85.343 134.741 76.421 146.549 79.028 150.195 90.557 142.033 99.479"/>
    <polygon class="cls-1" points="104.488 146.648 100.601 147.984 97.501 145.286 98.287 141.252 102.173 139.916 105.274 142.614 104.488 146.648"/>
  </g>
</svg>
