<svg id="Layer_1" data-name="Layer 1" xmlns="http://www.w3.org/2000/svg" viewBox="0 0 76.431 76.181">
  <defs>
    <style>
      .cls-1 {
        fill: #444;
      }
    </style>
  </defs>
  <title>5ffcb7c5-037b-48f3-90c8-e3c4be318230</title>
  <path class="cls-1" d="M6.9,71.155,1.041,73.22a1.5,1.5,0,0,0,.8,2.893c26.586-7.126,58.194-21.837,59.54-53.542.082-1.93-2.918-1.927-3,0C57.094,52.827,26.2,66.478,1.041,73.22l.8,2.893L7.7,74.048c1.809-.637,1.03-3.537-.8-2.893Z" transform="translate(0 0.007)"/>
  <path class="cls-1" d="M49.322,22.22a191.657,191.657,0,0,0,26.67-19.7L73.484,1.061l-6.527,25.3c-.483,1.871,2.41,2.669,2.893.8l6.527-25.3A1.513,1.513,0,0,0,73.87.4,187.2,187.2,0,0,1,47.807,19.63c-1.644,1.007-.138,3.6,1.514,2.59Z" transform="translate(0 0.007)"/>
</svg>
